{"title":"Formula 1 2007 Round Malaysia Race","uid":9216762,"size":885004791,"categoryP":"video","categoryS":"tv_shows","magnet":"?xt=urn:btih:bddf6b36528d4da0d946870a1c702088a826acde&amp;dn=Formula+1+2007+Round+Malaysia+Race&amp;tr=udp%3A%2F%2Ftracker.openbittorrent.com%3A80&amp;tr=udp%3A%2F%2Fopen.demonii.com%3A1337&amp;tr=udp%3A%2F%2Ftracker.coppersurfer.tk%3A6969&amp;tr=udp%3A%2F%2Fexodus.desync.com%3A6969","seeders":1,"leechers":1,"uploader":"totocon","files":1,"time":1384871738,"description":"ITV broadcast\n\nFormat                                   : Matroska\nFormat version                           : Version 4 / Version 2\nFile size                                : 844 MiB\nDuration                                 : 1h 39mn\nOverall bit rate                         : 1 180 Kbps\nEncoded date                             : UTC 2013-11-19 13:27:23\nWriting application                      : mkvmerge v6.3.0 ('You can't stop me!') built on Jun 27 2013 22:06:07\nWriting library                          : libebml v1.3.0 + libmatroska v1.4.0\n\nVideo\nID                                       : 1\nFormat                                   : MPEG-4 Visual\nFormat profile                           : Advanced Simple@L5\nFormat settings, BVOP                    : Yes\nFormat settings, QPel                    : No\nFormat settings, GMC                     : No warppoints\nFormat settings, Matrix                  : Default (H.263)\nCodec ID                                 : V_MS/VFW/FOURCC / DX50\nCodec ID/Hint                            : DivX 5\nDuration                                 : 1h 39mn\nBit rate                                 : 1 045 Kbps\nWidth                                    : 640 pixels\nHeight                                   : 352 pixels\nDisplay aspect ratio                     : 16:9\nFrame rate mode                          : Constant\nFrame rate                               : 25.000 fps\nColor space                              : YUV\nChroma subsampling                       : 4:2:0\nBit depth                                : 8 bits\nScan type                                : Progressive\nCompression mode                         : Lossy\nBits/(Pixel*Frame)                       : 0.186\nStream size                              : 747 MiB (89%)\nWriting library                          : XviD 1.1.2 (UTC 2006-11-01)\nDefault                                  : Yes\nForced                                   : No\n\nAudio\nID                                       : 2\nFormat                                   : MPEG Audio\nFormat version                           : Version 1\nFormat profile                           : Layer 3\nMode                                     : Joint stereo\nMode extension                           : MS Stereo\nCodec ID                                 : A_MPEG/L3\nCodec ID/Hint                            : MP3\nDuration                                 : 1h 39mn\nBit rate mode                            : Constant\nBit rate                                 : 112 Kbps\nChannel(s)                               : 2 channels\nSampling rate                            : 48.0 KHz\nCompression mode                         : Lossy\nStream size                              : 80.1 MiB (9%)\nDefault                                  : Yes\nForced                                   : No\n\n","torrent":{"xt":"urn:btih:bddf6b36528d4da0d946870a1c702088a826acde","amp;dn":"Formula+1+2007+Round+Malaysia+Race","amp;tr":["udp%3A%2F%2Ftracker.openbittorrent.com%3A80","udp%3A%2F%2Fopen.demonii.com%3A1337","udp%3A%2F%2Ftracker.coppersurfer.tk%3A6969","udp%3A%2F%2Fexodus.desync.com%3A6969"],"infoHash":"bddf6b36528d4da0d946870a1c702088a826acde","infoHashBuffer":{"type":"Buffer","data":[189,223,107,54,82,141,77,160,217,70,135,10,28,112,32,136,168,38,172,222]},"announce":[],"urlList":[]}}